<?xml version="1.0" encoding="utf-8"?>
<!-- Generator: Adobe Illustrator 16.0.0, SVG Export Plug-In . SVG Version: 6.00 Build 0)  -->
<!DOCTYPE svg PUBLIC "-//W3C//DTD SVG 1.1//EN" "http://www.w3.org/Graphics/SVG/1.1/DTD/svg11.dtd">
<svg version="1.1" id="Layer_1" xmlns="http://www.w3.org/2000/svg" xmlns:xlink="http://www.w3.org/1999/xlink" x="0px" y="0px"
	 width="70px" height="70px" viewBox="0 0 70 70" enable-background="new 0 0 70 70" xml:space="preserve">
<g>
	<path fill="#FFFFFF" d="M52.127,37.567c-0.559-1.248-0.363-2.536-0.17-3.779c0.295-1.925,0.65-4.283-2.414-5.665
		c0.203-0.734,0.188-1.577-0.432-1.877l-3.646-1.754c-0.797-0.383-2.877-0.303-3.119,0.203c-0.242,0.504-0.914,1.557,0.789,1.949
		s3.289,2.386,3.289,2.386c0.574,0.558,1.23,0.889,1.746,0.898c2.043,0.718,1.928,1.557,1.625,3.526
		c-0.217,1.411-0.486,3.168,0.336,5.004c1.107,2.473,1.174,3.928,0.219,4.859c-1.17,1.152-2.752,0.787-3.75,0.125
		c-1.346-0.893-1.367-2.547-1.246-5.164c0.07-1.479,0.143-3.011-0.297-4.319c-0.971-2.896-3.945-2.931-4.082-2.931l0,0l-1.324-0.003
		v-9.832c0-0.603-0.492-1.093-1.094-1.093H25.445c-0.6,0-1.092,0.491-1.092,1.093v22.947H23.26c0,0-1.094,0-1.094,1.094
		c0,1.092,0,1.092,0,1.092h1.094h1.094h1.092h13.111h1.094h1.094h1.092v-1.092c0,0,0-1.094-1.092-1.094H39.65V33.213l1.312,0.003
		c0.158,0.003,1.564,0.068,2.023,1.441c0.309,0.919,0.248,2.182,0.184,3.522c-0.119,2.551-0.254,5.443,2.223,7.088
		c0.992,0.658,2.076,0.982,3.125,0.982c1.244,0,2.438-0.459,3.363-1.367C54.328,42.485,52.729,38.913,52.127,37.567z M47.15,28.506
		c-0.299,0-0.545-0.245-0.545-0.546c0-0.303,0.246-0.547,0.545-0.547c0.305,0,0.549,0.244,0.549,0.547
		C47.699,28.261,47.455,28.506,47.15,28.506z M26.539,23.381c0-0.603,0.49-1.093,1.092-1.093h8.742c0.6,0,1.092,0.491,1.092,1.093
		v6.556c0,0.6-0.492,1.093-1.092,1.093h-8.742c-0.602,0-1.092-0.494-1.092-1.093V23.381z"/>
</g>
</svg>
