<?xml version="1.0" encoding="utf-8"?>
<!-- Generator: Adobe Illustrator 16.0.0, SVG Export Plug-In . SVG Version: 6.00 Build 0)  -->
<!DOCTYPE svg PUBLIC "-//W3C//DTD SVG 1.1//EN" "http://www.w3.org/Graphics/SVG/1.1/DTD/svg11.dtd">
<svg version="1.1" id="Layer_1" xmlns="http://www.w3.org/2000/svg" xmlns:xlink="http://www.w3.org/1999/xlink" x="0px" y="0px"
	 width="70px" height="70px" viewBox="0 0 70 70" enable-background="new 0 0 70 70" xml:space="preserve">
<g>
	<path fill="#FFFFFF" d="M34.901,24.571c1.495,0,2.702-1.21,2.702-2.704c0-1.491-1.207-2.702-2.702-2.702
		c-1.492,0-2.701,1.211-2.701,2.702C32.2,23.36,33.409,24.571,34.901,24.571z"/>
	<path fill="#FFFFFF" d="M45.604,20.355c0.527-0.552,0.504-1.425-0.048-1.956c-0.555-0.526-1.429-0.503-1.955,0.05l-6.691,6.729
		l-3.943,0.002l-6.73-6.73c-0.526-0.553-1.4-0.576-1.956-0.05c-0.553,0.53-0.576,1.403-0.048,1.956l7.029,7.042l0.001,23.347
		c0,0.84,0.682,1.521,1.521,1.521s1.52-0.681,1.52-1.521l0.002-12.663h1.228l0.014,12.663c0,0.84,0.682,1.521,1.52,1.521
		s1.519-0.681,1.519-1.521l-0.011-23.347L45.604,20.355z"/>
</g>
</svg>
