<?xml version="1.0" encoding="utf-8"?>
<!-- Generator: Adobe Illustrator 16.0.0, SVG Export Plug-In . SVG Version: 6.00 Build 0)  -->
<!DOCTYPE svg PUBLIC "-//W3C//DTD SVG 1.1//EN" "http://www.w3.org/Graphics/SVG/1.1/DTD/svg11.dtd">
<svg version="1.1" id="Layer_1" xmlns="http://www.w3.org/2000/svg" xmlns:xlink="http://www.w3.org/1999/xlink" x="0px" y="0px"
	 width="70px" height="70px" viewBox="0 0 70 70" enable-background="new 0 0 70 70" xml:space="preserve">
<g>
	<path fill="#FFFFFF" d="M36.26,32.566V26.82h-2.686v5.747c-0.8,0.465-1.345,1.322-1.345,2.315c0,0.992,0.545,1.846,1.345,2.313
		v1.716h2.686v-1.716c0.798-0.468,1.345-1.321,1.345-2.313C37.604,33.889,37.058,33.031,36.26,32.566z"/>
	<path fill="#FFFFFF" d="M46.685,25.967l2.941-2.949l-2.85-2.85l-2.945,2.948c-2.143-1.629-4.734-2.69-7.571-2.945v-2.755h1.345
		v-2.687h-5.375v2.687h1.345v2.755c-7.533,0.679-13.435,7.001-13.435,14.71c0,8.16,6.614,14.777,14.778,14.777
		c8.161,0,14.776-6.617,14.776-14.777C49.694,31.529,48.563,28.446,46.685,25.967z M34.918,46.972
		c-6.666,0-12.089-5.424-12.089-12.09c0-6.669,5.423-12.093,12.089-12.093c6.665,0,12.091,5.423,12.091,12.093
		C47.009,41.548,41.583,46.972,34.918,46.972z"/>
</g>
</svg>
