<?xml version="1.0" encoding="utf-8"?>
<!-- Generator: Adobe Illustrator 16.0.0, SVG Export Plug-In . SVG Version: 6.00 Build 0)  -->
<!DOCTYPE svg PUBLIC "-//W3C//DTD SVG 1.1//EN" "http://www.w3.org/Graphics/SVG/1.1/DTD/svg11.dtd">
<svg version="1.1" id="Layer_1" xmlns="http://www.w3.org/2000/svg" xmlns:xlink="http://www.w3.org/1999/xlink" x="0px" y="0px"
	 width="70px" height="70px" viewBox="0 0 70 70" enable-background="new 0 0 70 70" xml:space="preserve">
<path fill-rule="evenodd" clip-rule="evenodd" fill="#FFFFFF" d="M25.196,39.041c0,5.304,4.3,9.604,9.604,9.604h0.564
	c5.307,0,9.606-4.3,9.606-9.604c0-1.196-0.169-2.336-0.565-3.394c-3.281,0-6.176,1.647-7.908,4.157v-4.297
	c3.225-0.655,5.65-3.501,5.65-6.923v-5.943c0-0.619-0.511-1.119-1.133-1.119c-0.313,0-0.604,0.133-0.808,0.342l-2.147,2.123
	l-2.129-2.123c-0.451-0.454-1.181-0.454-1.626,0l-2.165,2.159l-2.181-2.159c-0.203-0.208-0.492-0.342-0.809-0.342
	c-0.622,0-1.129,0.5-1.129,1.119v5.943c0,3.422,2.423,6.268,5.647,6.923v4.297c-1.732-2.51-4.627-4.157-7.91-4.157
	C25.365,36.705,25.196,37.845,25.196,39.041z"/>
</svg>
