<?xml version="1.0" encoding="utf-8"?>
<!-- Generator: Adobe Illustrator 16.0.0, SVG Export Plug-In . SVG Version: 6.00 Build 0)  -->
<!DOCTYPE svg PUBLIC "-//W3C//DTD SVG 1.1//EN" "http://www.w3.org/Graphics/SVG/1.1/DTD/svg11.dtd">
<svg version="1.1" id="Layer_1" xmlns="http://www.w3.org/2000/svg" xmlns:xlink="http://www.w3.org/1999/xlink" x="0px" y="0px"
	 width="70px" height="70px" viewBox="0 0 70 70" enable-background="new 0 0 70 70" xml:space="preserve">
<path fill-rule="evenodd" clip-rule="evenodd" fill="#FFFFFF" d="M43.449,30.344c-1.213-1.675-2.968-2.887-4.469-4.295
	c-1.009-0.956-2.723-2.003-1.4-3.402c0.587-0.615,3.413-3.864,1.625-4.501c-0.853-0.308-2.043,0.802-2.762,1.171
	c-0.907,0.463-1.956,0.524-2.92,0.247c-1.049-0.289-2.243-0.883-3.206-0.021c-0.238,0.196-0.359,0.494-0.277,0.926
	c0.11,0.637,1.201,0.864,1.652,1.182c2.877,2.005,2.908,2.272,0.146,4.245c-1.799,1.274-3.424,2.857-4.597,4.729
	c-1.192,1.921-1.817,4.099-3.062,6.012c-0.843,1.293-0.956,3.463-0.793,4.963c0.168,1.562,0.342,3.392,2.016,3.987
	c2.159,0.781,5.203,0.545,7.452,0.369c2.436-0.164,4.922-0.431,7.317,0.146c1.717,0.411,3.637,0.246,4.767-1.274
	C47.983,40.734,46.124,34.055,43.449,30.344z M38.036,38.884c-0.078,0.258-0.209,0.495-0.392,0.713
	c-0.184,0.218-0.421,0.404-0.714,0.562s-0.652,0.271-1.08,0.34v1.597h-1.648v-1.557c-0.638-0.053-1.155-0.149-1.55-0.294
	c-0.398-0.145-0.691-0.265-0.884-0.36l0.563-1.504c0.305,0.146,0.669,0.283,1.092,0.405c0.423,0.121,0.87,0.183,1.342,0.183
	c0.531,0,0.896-0.071,1.092-0.216c0.196-0.144,0.295-0.347,0.295-0.608c0-0.166-0.039-0.307-0.118-0.427
	c-0.079-0.116-0.191-0.224-0.341-0.319c-0.147-0.095-0.336-0.19-0.562-0.28c-0.228-0.093-0.489-0.19-0.784-0.295
	c-0.287-0.105-0.57-0.221-0.844-0.347c-0.275-0.127-0.524-0.281-0.747-0.466c-0.221-0.182-0.401-0.408-0.536-0.674
	c-0.136-0.266-0.202-0.585-0.202-0.961c0-0.287,0.04-0.564,0.124-0.83c0.083-0.266,0.211-0.508,0.388-0.726
	c0.173-0.22,0.398-0.405,0.678-0.558c0.28-0.152,0.611-0.264,0.995-0.334v-1.412h1.648v1.36c0.454,0.044,0.845,0.11,1.173,0.197
	c0.326,0.087,0.586,0.173,0.776,0.261l-0.405,1.57c-0.287-0.123-0.621-0.227-1.002-0.314c-0.378-0.086-0.776-0.131-1.196-0.131
	c-0.418,0-0.72,0.069-0.902,0.211c-0.183,0.139-0.275,0.322-0.275,0.549c0,0.139,0.027,0.259,0.087,0.358
	c0.056,0.102,0.145,0.19,0.269,0.269c0.121,0.078,0.271,0.156,0.449,0.229c0.18,0.074,0.396,0.155,0.648,0.242
	c0.384,0.141,0.74,0.294,1.065,0.46c0.328,0.165,0.612,0.355,0.851,0.569c0.24,0.212,0.429,0.463,0.563,0.751
	c0.135,0.29,0.202,0.623,0.202,1.008C38.153,38.367,38.114,38.627,38.036,38.884z"/>
</svg>
