<?xml version="1.0" encoding="utf-8"?>
<!-- Generator: Adobe Illustrator 16.0.0, SVG Export Plug-In . SVG Version: 6.00 Build 0)  -->
<!DOCTYPE svg PUBLIC "-//W3C//DTD SVG 1.1//EN" "http://www.w3.org/Graphics/SVG/1.1/DTD/svg11.dtd">
<svg version="1.1" id="Layer_1" xmlns="http://www.w3.org/2000/svg" xmlns:xlink="http://www.w3.org/1999/xlink" x="0px" y="0px"
	 width="70px" height="70px" viewBox="0 0 70 70" enable-background="new 0 0 70 70" xml:space="preserve">
<g>
	<path fill="#FFFFFF" d="M31.378,28.938h-0.065c-0.157,0-0.237,0.022-0.237,0.069v8.053c0,0.225-0.146,0.398-0.438,0.523
		c-0.294,0.126-0.555,0.186-0.78,0.186c-0.18,0-0.399-0.071-0.658-0.219c-0.262-0.147-0.391-0.345-0.391-0.594v-9.372
		c0-0.27,0.084-0.573,0.254-0.912c0.17-0.339,0.386-0.655,0.643-0.947c0.259-0.295,0.546-0.536,0.863-0.729
		c0.314-0.191,0.618-0.286,0.913-0.286h7.104c0.342,0,0.672,0.095,0.998,0.286c0.329,0.193,0.627,0.44,0.898,0.745
		c0.27,0.304,0.483,0.638,0.644,0.999c0.156,0.36,0.233,0.7,0.233,1.015v9.203c0,0.249-0.132,0.446-0.403,0.594
		s-0.507,0.219-0.71,0.219c-0.362,0-0.656-0.103-0.88-0.306c-0.226-0.201-0.337-0.495-0.337-0.879v-7.646h-0.476v21.587
		c0,0.385-0.192,0.688-0.574,0.915c-0.386,0.225-0.747,0.336-1.083,0.336c-0.385,0-0.74-0.136-1.068-0.405
		c-0.323-0.27-0.49-0.619-0.49-1.047V37.77h-0.539v12.555c0,0.428-0.164,0.777-0.492,1.047c-0.325,0.27-0.692,0.405-1.099,0.405
		s-0.76-0.136-1.065-0.405c-0.305-0.27-0.458-0.619-0.458-1.047V29.008c0-0.047-0.033-0.069-0.104-0.069c-0.044,0-0.088,0-0.131,0
		H31.378z"/>
	<path fill="#FFFFFF" d="M32.396,21.191c0-0.745,0.254-1.388,0.76-1.929c0.511-0.541,1.134-0.812,1.876-0.812
		c0.769,0,1.418,0.271,1.947,0.812c0.532,0.541,0.795,1.184,0.795,1.929c0,0.743-0.263,1.374-0.795,1.896
		c-0.529,0.519-1.179,0.776-1.947,0.776c-0.742,0-1.365-0.257-1.876-0.776C32.649,22.565,32.396,21.934,32.396,21.191z"/>
</g>
</svg>
