<?xml version="1.0" encoding="utf-8"?>
<!-- Generator: Adobe Illustrator 16.0.0, SVG Export Plug-In . SVG Version: 6.00 Build 0)  -->
<!DOCTYPE svg PUBLIC "-//W3C//DTD SVG 1.1//EN" "http://www.w3.org/Graphics/SVG/1.1/DTD/svg11.dtd">
<svg version="1.1" id="Layer_1" xmlns="http://www.w3.org/2000/svg" xmlns:xlink="http://www.w3.org/1999/xlink" x="0px" y="0px"
	 width="70px" height="70px" viewBox="0 0 70 70" enable-background="new 0 0 70 70" xml:space="preserve">
<g>
	<path fill="#FFFFFF" d="M48.133,37.131c-0.145-0.417-0.559-0.979-0.927-1.042c-1.939-0.333-3.202-2.335-2.547-4.2
		c0.403-1.147,0.784-2.302,1.199-3.529c-2.342-0.523-3.908,0.259-5.142,2.01c-0.731-0.28-1.301-0.543-1.896-0.721
		c-5.177-1.539-10.046-1.07-14.259,2.542c-1.111,0.954-2.107,2.239-2.581,3.634c-0.523,1.541-0.187,3.131,0.509,4.564
		c1.275,2.624,4.018,4.382,3.008,7.659c1.602,0,2.915,0,4.244,0c0.101-0.662,0.185-1.212,0.248-1.617c2.534,0,4.952,0,7.451,0
		c0.072,0.524,0.145,1.063,0.219,1.604c1.432,0,2.753,0,4.198,0c0-0.906-0.006-1.681,0.001-2.456
		c0.014-1.308,1.798-3.244,3.086-3.354c3.226-0.276,3.226-0.276,3.226-3.542C48.171,38.162,48.292,37.598,48.133,37.131z
		 M33.774,31.903c-1.989,0-3.601,0.547-3.601,0.307c0-0.239,1.611-1.18,3.601-1.18c1.987,0,3.6,0.94,3.6,1.18
		C37.374,32.45,35.762,31.903,33.774,31.903z"/>
	<circle fill-rule="evenodd" clip-rule="evenodd" fill="#FFFFFF" cx="33.539" cy="21.189" r="3.522"/>
</g>
</svg>
