<?xml version="1.0" encoding="utf-8"?>
<!-- Generator: Adobe Illustrator 16.0.0, SVG Export Plug-In . SVG Version: 6.00 Build 0)  -->
<!DOCTYPE svg PUBLIC "-//W3C//DTD SVG 1.1//EN" "http://www.w3.org/Graphics/SVG/1.1/DTD/svg11.dtd">
<svg version="1.1" id="Layer_1" xmlns="http://www.w3.org/2000/svg" xmlns:xlink="http://www.w3.org/1999/xlink" x="0px" y="0px"
	 width="20px" height="20px" viewBox="0 0 20 20" enable-background="new 0 0 20 20" xml:space="preserve">
<g>
	<path fill="#FFFFFF" d="M5.555,10.958L7.06,11.83c0,0-1.33-3.472-2.342-4.058c-1.017-0.586-4.688,0-4.688,0l1.507,0.863
		l-1.171,2.027c-0.287,0.486-0.309,1.105-0.009,1.628l2.896,5.016c-0.024-0.043-0.034-0.09-0.055-0.137
		c0.341,0.52,0.917,0.844,1.542,0.84h4.169v-4.643H4.219C3.676,14.305,5.555,10.958,5.555,10.958z"/>
	<path fill="#FFFFFF" d="M19.744,10.618c0-0.002-1.16-2.01-2.084-3.607L13.64,9.333l2.302,3.982h-2.657l0.002-1.74
		c0,0-2.344,2.889-2.344,4.059c0,1.174,2.344,4.059,2.344,4.059l-0.002-1.732h2.336c0.566,0.004,1.113-0.285,1.416-0.807l2.65-4.6
		c0.021-0.029,0.048-0.051,0.066-0.082c0.018-0.033,0.024-0.068,0.042-0.098l0.134-0.238c-0.022,0.041-0.059,0.07-0.082,0.109
		C20.063,11.717,20.038,11.115,19.744,10.618z"/>
	<path fill="#FFFFFF" d="M14.227,5.866c1.014-0.586,2.346-4.056,2.346-4.056l-1.504,0.87c0,0-0.587-1.025-0.822-1.433
		c-0.306-0.528-0.855-0.863-1.46-0.909c0.077-0.008-5.558-0.03-5.558-0.03c-0.602,0-1.111,0.339-1.404,0.819
		C5.311,1.959,3.381,5.354,3.381,5.354l4.038,2.33c0,0,1.506-2.615,2.589-4.488l1.052,1.821L9.54,5.868
		C9.54,5.868,13.211,6.453,14.227,5.866z"/>
</g>
</svg>
