<?xml version="1.0" encoding="utf-8"?>
<!-- Generator: Adobe Illustrator 16.0.0, SVG Export Plug-In . SVG Version: 6.00 Build 0)  -->
<!DOCTYPE svg PUBLIC "-//W3C//DTD SVG 1.1//EN" "http://www.w3.org/Graphics/SVG/1.1/DTD/svg11.dtd">
<svg version="1.1" id="Layer_1" xmlns="http://www.w3.org/2000/svg" xmlns:xlink="http://www.w3.org/1999/xlink" x="0px" y="0px"
	 width="70px" height="70px" viewBox="0 0 70 70" enable-background="new 0 0 70 70" xml:space="preserve">
<g>
	<g>
		<g>
			<circle fill="#FFFFFF" cx="35.014" cy="34.567" r="2.466"/>
		</g>
		<g>
			
				<rect x="33.631" y="36" transform="matrix(0.7075 0.7067 -0.7067 0.7075 37.2822 -15.5183)" fill="#FFFFFF" width="7.512" height="2.553"/>
		</g>
		<g>
			<rect x="33.735" y="27.091" fill="#FFFFFF" width="2.553" height="6.948"/>
		</g>
	</g>
	<g>
		<path fill="#FFFFFF" d="M35.083,49.352c-8.138,0-14.76-6.621-14.76-14.759c0-8.14,6.622-14.761,14.76-14.761
			c8.141,0,14.762,6.622,14.762,14.761C49.845,42.73,43.224,49.352,35.083,49.352z M35.083,22.375
			c-6.735,0-12.215,5.479-12.215,12.217c0,6.735,5.479,12.215,12.215,12.215c6.738,0,12.219-5.48,12.219-12.215
			C47.302,27.855,41.821,22.375,35.083,22.375z"/>
	</g>
</g>
</svg>
