<?xml version="1.0" encoding="utf-8"?>
<!-- Generator: Adobe Illustrator 16.0.0, SVG Export Plug-In . SVG Version: 6.00 Build 0)  -->
<!DOCTYPE svg PUBLIC "-//W3C//DTD SVG 1.1//EN" "http://www.w3.org/Graphics/SVG/1.1/DTD/svg11.dtd">
<svg version="1.1" id="Layer_1" xmlns="http://www.w3.org/2000/svg" xmlns:xlink="http://www.w3.org/1999/xlink" x="0px" y="0px"
	 width="69.13px" height="43.18px" viewBox="0 0 69.13 43.18" enable-background="new 0 0 69.13 43.18" xml:space="preserve">
<g>
	<g>
		<g>
			<polygon fill="#86C135" points="58.912,12.382 48.012,12.382 48.012,35.659 68.152,35.659 68.152,22.449 58.912,12.275 			"/>
		</g>
		<g>
			<polygon fill="#47695F" points="57.732,16.366 52.418,16.366 52.418,22.725 63.422,22.725 			"/>
		</g>
		<g>
			<polygon fill="#A0CC4A" points="58.857,4.126 48.012,4.126 48.012,8.251 48.012,8.911 48.012,12.215 48.012,12.382 
				58.912,12.382 			"/>
		</g>
		<g>
			<polygon fill="#9CC143" points="68.102,14.472 58.857,4.126 58.857,12.384 68.152,22.449 68.152,22.449 			"/>
		</g>
		<g>
			<g>
				<path fill="#47695F" d="M69.018,25.005l-10.6-11.637H47.025V3.136l12.277,0.002l9.785,10.949L69.018,25.005z M49.012,11.392
					h10.277l7.855,8.506l-0.031-5.04l-8.695-9.741l-9.406-0.002V11.392z"/>
			</g>
		</g>
		<g>
			<polygon fill="#E3E9E8" points="47.955,8.911 23.251,8.911 11.695,37.969 48.012,37.969 48.012,35.659 48.012,12.382 
				48.012,12.215 48.012,8.911 			"/>
		</g>
		<g>
			<polygon fill="#E7EEEE" points="23.251,0.987 23.251,8.251 23.251,8.911 47.955,8.911 48.012,8.911 48.012,8.251 48.012,4.126 
				48.012,0.987 			"/>
		</g>
		<g>
			<path fill="#C4CCCB" d="M1.57,34.337C4.8,7.637,20.844,8.623,23.004,8.873c0.159,0.021,0.247,0.038,0.247,0.038v-0.66V0.987
				C23.251,0.987-3.197,0.657,1.57,34.337z"/>
		</g>
		<g>
			<path fill="#D9DCDB" d="M23.004,8.873C20.844,8.623,4.8,7.637,1.57,34.337c0.224,0,10.143,3.617,10.143,3.617L23.251,8.911
				C23.251,8.911,23.164,8.895,23.004,8.873z"/>
		</g>
		<g>
			<g>
				<path fill="#47695F" d="M49.012,38.959l-37.487-0.017l-0.271-0.099c-5.342-1.947-9.119-3.304-9.813-3.522H0.705l-0.119-0.849
					C-1.063,22.834,0.774,13.861,6.025,7.81c6.597-7.596,16.131-7.811,17.201-7.811h25.786V38.959z M11.875,36.963l35.15,0.015v-35
					H23.251l0,0c-0.431,0-9.612,0.09-15.725,7.13C2.75,14.601,1.051,22.834,2.464,33.582C3.521,33.934,5.97,34.807,11.875,36.963z"
					/>
			</g>
		</g>
		<g>
			<path fill="#47695F" d="M69.146,36.642H47.025V3.136h12.277l9.789,10.953L69.146,36.642z M49.012,34.669H67.16l-0.047-19.821
				l-8.695-9.733h-9.406V34.669z"/>
		</g>
		<g>
			<rect x="57.871" y="4.126" fill="#47695F" width="1.98" height="8.256"/>
		</g>
		<g>
			<g>
				<polygon fill="#47695F" points="12.622,38.321 10.781,37.59 22.261,8.721 22.261,0.987 24.24,0.987 24.24,9.099 				"/>
			</g>
		</g>
		<g>
			<g>
				<path fill="#47695F" d="M2.544,34.51l-1.952-0.351c2.144-11.981,6.597-20.041,13.218-23.95c4.704-2.794,8.844-2.378,9.512-2.288
					h24.69v1.98L23.086,9.889C22.457,9.788,7.352,7.718,2.544,34.51z"/>
			</g>
		</g>
		<g>
			<g>
				<path fill="#47695F" d="M64.088,37.555c0,3.101-2.514,5.625-5.631,5.625c-3.094,0-5.611-2.524-5.611-5.625
					c0-3.105,2.518-5.621,5.611-5.621C61.574,31.934,64.088,34.449,64.088,37.555z"/>
			</g>
			<g>
				<path fill="#FFFFFF" d="M60.412,37.555c0,1.076-0.867,1.945-1.955,1.945c-1.066,0-1.947-0.869-1.947-1.945
					c0-1.078,0.881-1.943,1.947-1.943C59.545,35.611,60.412,36.477,60.412,37.555z"/>
			</g>
		</g>
		<g>
			<g>
				<path fill="#47695F" d="M30.851,37.555c0,3.101-2.51,5.625-5.621,5.625c-3.102,0-5.617-2.524-5.617-5.625
					c0-3.105,2.516-5.621,5.617-5.621C28.341,31.934,30.851,34.449,30.851,37.555z"/>
			</g>
			<g>
				<path fill="#FFFFFF" d="M27.179,37.555c0,1.076-0.88,1.945-1.949,1.945c-1.074,0-1.945-0.869-1.945-1.945
					c0-1.078,0.871-1.943,1.945-1.943C26.299,35.611,27.179,36.477,27.179,37.555z"/>
			</g>
		</g>
	</g>
	<g>
		<path fill="#47695F" d="M31.724,23.227l0.93,0.539c0,0-0.82-2.146-1.447-2.509c-0.629-0.362-2.898,0-2.898,0l0.932,0.534
			l-0.725,1.252c-0.177,0.301-0.191,0.685-0.004,1.008l1.789,3.1c-0.016-0.026-0.021-0.056-0.034-0.083
			c0.211,0.32,0.568,0.52,0.953,0.519h2.577v-2.871h-2.898C30.562,25.296,31.724,23.227,31.724,23.227z"/>
		<path fill="#47695F" d="M40.496,23.017c0-0.002-0.717-1.243-1.289-2.23l-2.484,1.436l1.422,2.462h-1.643l0.002-1.075
			c0,0-1.45,1.784-1.45,2.508c0,0.725,1.45,2.51,1.45,2.51l-0.002-1.071h1.445c0.35,0.002,0.688-0.178,0.875-0.499l1.641-2.844
			c0.01-0.018,0.027-0.032,0.037-0.051c0.012-0.02,0.016-0.041,0.027-0.061l0.084-0.146c-0.016,0.025-0.037,0.043-0.053,0.067
			C40.693,23.695,40.678,23.324,40.496,23.017z"/>
		<path fill="#47695F" d="M37.084,20.078c0.629-0.361,1.451-2.508,1.451-2.508l-0.93,0.539c0,0-0.363-0.634-0.508-0.886
			c-0.189-0.327-0.529-0.533-0.904-0.562c0.049-0.005,0.096-0.019,0.145-0.019h-3.579c-0.373,0-0.688,0.21-0.869,0.506
			c-0.316,0.515-1.51,2.613-1.51,2.613l2.496,1.44c0,0,0.931-1.616,1.6-2.774l0.65,1.126l-0.939,0.526
			C34.187,20.08,36.457,20.441,37.084,20.078z"/>
	</g>
</g>
</svg>
